<?xml version="1.0" encoding="utf-8"?>
<!-- Generator: Adobe Illustrator 16.0.0, SVG Export Plug-In . SVG Version: 6.00 Build 0)  -->
<!DOCTYPE svg PUBLIC "-//W3C//DTD SVG 1.1//EN" "http://www.w3.org/Graphics/SVG/1.1/DTD/svg11.dtd">
<svg version="1.1" id="Layer_1" xmlns="http://www.w3.org/2000/svg" xmlns:xlink="http://www.w3.org/1999/xlink" x="0px" y="0px"
	 width="366px" height="351px" viewBox="0 0 366 351" enable-background="new 0 0 366 351" xml:space="preserve">
<path fill="#99FFFF" d="M356.904,175.973c0,93.834-76.067,169.901-169.903,169.901c-93.832,0-169.901-76.067-169.901-169.901
	C17.1,82.136,93.169,6.07,187.001,6.07C280.837,6.07,356.904,82.136,356.904,175.973z"/>
<g>
	<path fill="#FFFF99" stroke="#0000FF" stroke-width="2" stroke-miterlimit="10" d="M167.856,183.621
		c8.225-5.559,10.055-9.13,22.362-19.181c9.754-7.969,11.214-3.938,12.723-3.05c1.774,1.051,1.788,2.827-1.996,8.554
		c-6.104,9.243-13.144,22.696-13.144,22.696s-23.104,37.95-33.263,66.112c-8.998,24.957-7.013,42.413,18.016,16.223
		c5.29-5.534,13.905-17.452,21.819-27.056c87.649-106.332,87.605-85.599,62.96-46.854c-24.65,38.744-10.037,56.022,10.317,29.534
		c20.351-26.488,100.406-113.876,59.94-48.795c-16.683,26.828-29.138,52.379-29.917,69.258
		c-0.932,20.142,12.483,28.443,23.798,18.835c0.939-0.797-3.888-14.897-1.353-26.639c3.437-15.903,16.136-33.349,20.931-43.881
		c5.072-11.15,13.918-22.654,17.069-32.24c8.845-26.898,1.882-41.795-35.077-15.212c-15.615,11.232-37.04,44.121-42.061,44.45
		c-6.951,0.454,4.967-12.333,8.741-24.638c2.963-9.66,2.009-22.778-5.253-24.646c-4.276-1.099-13.681,2.144-30.247,15.652
		c-10.951,8.931-19.811,20.513-27.646,28.126c-22.387,21.754-34.915,41.11-36.205,40.585c-0.837-0.34,5.23-10.516,12.964-25.694
		c7.438-14.593,5.672-10.94,8.838-17.118c13.879-27.058,11.947-27.429,8.693-34.474c-6.206-13.438-34.964,11.853-62.21,33.333"/>
	<path fill="#FFFF99" stroke="#0000FF" stroke-width="2" stroke-miterlimit="10" d="M216.123,150.504
		c-15.715-3.105-69.282,51.12-66.746,35.565c1.008-6.195,9.154-29.504,20.932-54.784c9.584-20.572,23.105-42.43,24.934-56.693
		c1.572-12.255-6.38-18.873-22.662-14.603c-17.879,4.689-32.313,20.431-47.069,34.494c-25.14,23.961-44.53,50.409-46.142,50.114
		c-0.54-0.095,0.906-3.176,4.786-10.341c5.489-10.135,11.876-19.025,17.49-28.062c16.555-26.668,24.142-42.473-4.749-40.206
		c-19.725,1.546-61.644,19.66-80.393,33.867c-9.527,7.217-13.168,13.278-10.225,19.58c0.65,1.393,12.141,6.383,18.92,1.867
		c7.358-4.901,3.015-6.769,9.671-16.571c0,0,11.453-10.842,24.178-18.048c22.824-12.921,49.076-19.764,15.981,28.628
		C42.145,163.396,6.943,219.618,13.636,227.649c4.208,5.047,32.799-6.22,61.393-51.974c14.597-23.36,28.623-43.78,44.46-63.764
		c40.702-51.363,67.718-48.679,48.441-22.351c-11.93,16.292-32.132,49.234-37.524,76.584c-2.771,14.05-3.822,30.161,1.835,36.375
		c6.206,6.815,21.34,7.261,38.1-9.808c27.68-28.19,36.028-31.108,39.479-28.197"/>
</g>
</svg>
