<?xml version="1.0" encoding="utf-8"?>
<!-- Generator: Adobe Illustrator 16.0.0, SVG Export Plug-In . SVG Version: 6.00 Build 0)  -->
<!DOCTYPE svg PUBLIC "-//W3C//DTD SVG 1.1//EN" "http://www.w3.org/Graphics/SVG/1.1/DTD/svg11.dtd">
<svg version="1.1" id="Layer_1" xmlns="http://www.w3.org/2000/svg" xmlns:xlink="http://www.w3.org/1999/xlink" x="0px" y="0px"
	 width="1236px" height="620px" viewBox="0 0 1236 620" enable-background="new 0 0 1236 620" xml:space="preserve">
<path fill="#99FFFF" d="M776.287,217.469c37.898,115.247-24.812,239.394-140.054,277.293
	c-115.245,37.888-239.402-24.804-277.299-140.056C321.045,239.45,383.75,115.299,498.991,77.405
	C614.243,39.512,738.387,102.218,776.287,217.469z"/>
<path fill="#FFFF99" stroke="#0000FF" stroke-width="3" stroke-miterlimit="10" d="M427.898,382.372
	c-4.582-8.698-17.671-10.67-15.686-15.018c8.356-18.379-33.1-8.27-43.894-2.111c-3.868,2.207-30.394,21.649-42.914,43.128
	c-12.521,21.483-55.936,95.151-59.009,73.166c-1.218-8.73,0.619-43.783,6.97-83.215c5.173-32.091,15.595-67.805,12.045-87.712
	c-3.048-17.1-17.71-22.061-39.935-8.432c-24.422,14.941-38.871,42.953-54.541,68.883c-26.697,44.18-43.813,88.868-46.322,89.271
	c-0.849,0.138-0.049-4.683,2.541-16.11c3.692-16.18,9.247-31.145,13.586-45.937c12.82-43.607,17.111-68.369-24.656-51.281
	c-28.51,11.664-82.603,56.206-104.119,84.278c-10.949,14.249-13.675,24.102-6.557,31.078c1.564,1.538,20.766,2.603,28.813-6.726
	c8.749-10.105,1.504-10.488,7.058-26.795c0,0,12.204-20.028,27.869-35.837c28.116-28.319,63.959-50.229,36.195,30.404
	c-27.579,80.105-55.032,172.19-41.611,179.631c8.445,4.685,45.823-24.247,68.086-99.158c11.351-38.252,23.155-72.297,37.837-106.639
	c37.72-88.289,78.888-97.863,61.894-53.383c-10.507,27.534-25.956,81.285-21.953,120.364c2.051,20.079,11.701,32.793,22.805,38.312
	c12.163,6.062,26.64,2.811,48.059-25.428c23.933-31.533,27.458-50.016,31.245-51.247c8.28-2.702-7.691,51.472,33.762,56.512
	c33.473,4.05,55.013-29.979,65.703-58.754C436.34,409.726,433.004,392.032,427.898,382.372z M377.108,456.468
	c-12.91,4.25-21.056-15.583-16.694-36.805c3.697-17.94,8.143-31.539,20.824-40.175c23.088-15.771,5.15,6.233,12.805,9.582
	c6.653,2.915,15.772-6.297,18.86-3.449c6.481,6.011,1.719,25.145,0.279,32.308C409.511,435.972,388.105,452.852,377.108,456.468z"/>
<g>
	<path fill="#FFFF99" stroke="#0000FF" stroke-width="3" stroke-miterlimit="10" d="M510.168,261.215
		c0,0-18.535,65.271-21.36,110.13c-2.532,39.735,8.659,63.279,35.647,13.567c5.677-10.498,13.646-31.698,21.568-49.277
		c87.709-194.661,97.246-165.458,76.655-98.265c-20.565,67.175,10.259,83.981,29.792,36.247
		c19.527-47.732,104.156-211.823,71.057-99.456c-13.648,46.33-21.279,88.678-14.688,112.831
		c7.877,28.822,32.664,33.611,45.898,14.281c1.095-1.609-12.975-18.964-14.439-36.787c-1.987-24.151,9.766-55.218,12.384-72.507
		c2.771-18.295,11.251-39.02,11.767-54.142c1.357-42.392-16.417-59.781-61.847-3.386c-19.193,23.829-37.451,81.115-45.144,84.159
		c-10.641,4.213,2.051-19.907,2.258-39.161c0.16-15.115-7.388-33.083-19.61-31.985c-7.198,0.651-20.382,10.051-40.013,37.57
		c-12.968,18.193-21.453,39.042-30.167,53.782c-24.895,42.104-35.532,75.789-37.79,75.701c-1.457-0.052,3.306-17.479,8.367-42.806
		c4.864-24.362,3.805-18.315,5.869-28.632c9.174-45.208,5.987-44.732-2.37-52.985c-15.901-15.717-56.96,21.576-93.193,62.902
		c-15.315,17.455-36.968,52.93-33.337,58.707c3.607,5.777,13.559,5.398,20.133,1.43c13.52-8.182,2.349-14.343,13.355-35.889
		c3.198-6.255,10.148-20.358,19.382-31.201c10.284-12.049,22.944-24.434,27.578-28.374c15.161-12.912,18.673-8.683,21.434-8.193
		c3.262,0.559,4.105,3.052,0.855,13.053C514.938,238.675,510.168,261.215,510.168,261.215z"/>
	<path fill="#FFFF99" stroke="#0000FF" stroke-width="3" stroke-miterlimit="10" d="M1141.854,177.555
		c-4.525-2.801-15.666-2.045-20.632-0.185c-17.177,6.436-29.069,22.046-33.636,17.503c-2.738-2.717-2.297-16.296-0.257-33.371
		c3.557-29.789,3.5-81.967-15.783-76.743c-10.19,2.759-22.086,18.673-45.9,50.643c-29.415,39.511-38.488,46.513-42.488,42.772
		c-4.277-4.015,3.799-24.688,6.067-41.295c2.513-18.162-1.04-31.861-13.151-23.266c-26.214,18.586-55.223,105.47-67.48,91.879
		c-3.433-3.797-4.796-20.178,1.77-44.051c6.121-22.261-7.331-23.879-12.4-22.144c-9.061,3.107-16.432,22.302-16.432,22.302
		s-2.258-16.536-14.969-17.396c-6.342-0.429-11.576-0.558-28.021,14.631c0,0-18.942,17.419-31.68,39.793
		c-9.024,15.854-12.794,35.251-13.917,48.003c-1.152,12.843,3.148,26.801,12.075,30.399c9.896,3.998,24.663-3.139,26.61-4.538
		c21.385-15.48,41.606-72.055,52.186-74.839c3.588-0.941,2.896,5.12,5.026,19.934c1.875,12.944,9.737,14.271,15.193,15.196
		c10.417,1.763,21.652-9.728,32.784-27.02c11.276-17.477,19.177-41.616,21.976-42.674c1.342-0.502,1.134,8.293,0.291,18.083
		c-1.925,22.914,9.35,30.415,21.271,27.244c19.884-5.291,43.688-37.736,51.17-48.549c6.596-9.531,25.065-37.555,32.726-33.651
		c6.238,3.189,3.432,28.908-2.276,82.022c-1.47,13.609-14.692,25.293-24.713,40.891c-10.773,16.753-22.355,36.679-25.931,52.077
		c-2.236,9.56-7.852,31.977-7.122,52.02c0.811,22.696,13.028,34.217,19.284,35.565c8.748,1.85,20.241-2.786,29.677-15.164
		c12.714-16.687,19.168-47.794,21.396-77.334c1.761-23.604,3.249-35.047,5.777-54.514c1.681-12.939,2.799-24.797,8.138-33.064
		c5.392-8.346,21.627-18.061,32.898-18.924c9.609-0.735,14.635,6.682,16.849,8.097
		C1144.072,201.61,1173.941,197.358,1141.854,177.555z M820.438,254.1c-6.618,2.174-11.823-12.754-4.018-29.019
		c10.614-22.125,37.598-48.227,46.61-51.189C878.672,168.746,836.08,248.95,820.438,254.1z M1019.267,360.652
		c-5.137-15.631,24.972-112.844,40.612-117.989c11.552-3.801-2.956,80.966-16.378,113.706
		C1038.733,367.982,1023.914,374.763,1019.267,360.652z"/>
	<path fill="#FFFF99" stroke="#0000FF" stroke-width="3" stroke-miterlimit="10" d="M1199.634,36.72c0,0,9.352-6.321,3.164-11.036
		c-8.888-6.726-42.669-10.616-69.682,18.1c-17.515,18.594-26.287,37.174-31.245,50.024c-5.586,14.544-0.21,22.984,7.64,17.924
		c3.387-2.207,4.014-12,10.114-18.963c0,0,11.417,94.808,62.792,49.456C1233.774,96.872,1225.322,38.964,1199.634,36.72z
		 M1162.866,127.776c-8.557,0.273-27.833-11.071-25.732-36.817c0.686-8.491,4.766-23.692,12.146-32.965
		c9.267-11.649,30.157-19.453,27.685-15.072c-8.276,14.667,13.494,9.034,18.935,13.537c6.611,5.494,5.711,23.009,3.728,35.099
		C1196.734,109.114,1181.455,127.183,1162.866,127.776z"/>
</g>
</svg>
